# xmcd CD database file
#
# Track frame offsets:
#	150
#	21453
#	68556
#	93484
#	114959
#	142595
#	165941
#	181711
#	200639
#	220509
#	242702
#	265191
#
# Disc length: 3849 seconds
#
# Revision: 0
# Processed by: cddbd v1.5.2PL0 Copyright (c) Steve Scherf et al.
# Submitted via: CDex 1.51
#
DISCID=950f070c
DTITLE=Bornheim Blues Company - Live
DYEAR=2004
DGENRE=Blues
TTITLE0=When The Blues Comes To Take You Away
TTITLE1=Stormy Monday
TTITLE2=Smuggler's Blues
TTITLE3=Nobody Knows You (When You're Down And Out)
TTITLE4=Sweet Home Chicago
TTITLE5=Old Love
TTITLE6=Wind Cries Mary
TTITLE7=Stoop Down Baby
TTITLE8=Chicago Bound
TTITLE9=Get Of My Life, Man
TTITLE10=Blue Jeans Blues
TTITLE11=Manish Boy
EXTD=YEAR: 2004
EXTT0=
EXTT1=
EXTT2=
EXTT3=
EXTT4=
EXTT5=
EXTT6=
EXTT7=
EXTT8=
EXTT9=
EXTT10=
EXTT11=
PLAYORDER=
